<svg xmlns="http://www.w3.org/2000/svg" viewBox="0 0 249.19 159.33"><defs><style>.cls-1{fill:#ece6e3;}</style></defs><g id="Layer_2" data-name="Layer 2"><g id="Layer_1-2" data-name="Layer 1"><path class="cls-1" d="M247.34,148.92a15.83,15.83,0,0,1-5.78.93c-7.17,0-12.95-3.47-19.43-12-3.23-4.39-5.78-8.09-7.4-10.63s-3.93-6.94-7.4-13.19C196.93,95.27,189.76,85.79,177,81.4v-.46a62,62,0,0,0,31.22-13.65c8.56-7.17,13-16.88,13-28.67C221.21,13.41,199.7,0,168,0c-5.55,0-12.25.23-20.35.92s-14.1.93-18.27.93c-9.48,0-18.26-.23-26.82-.93l-.23,6.25c11.79.69,15.72,3,17.34,12.48.93,4.86,1.39,25,1.39,60.82v2.08h26.36a25,25,0,0,1,18.73,8.1c5.09,5.32,12,15.95,21.05,31.45a49.36,49.36,0,0,1,3,5.55c9,15.72,13.18,22.66,21.51,28,4.16,2.54,9.25,3.7,15.26,3.7a58.4,58.4,0,0,0,22.2-4.86Zm-92-73.3C144,75.62,141,74,141,70.3c0-16,.23-35.61.46-59a70.08,70.08,0,0,1,22.89-3.47c22,0,34.46,11.79,34.46,33.76C198.78,64.29,184.21,75.62,155.3,75.62Z"/><path class="cls-1" d="M120.25,80.46,90.19,3.23c-3,.23-8.1.23-15.26.23-3.24,0-9.72-.23-19.2-.46L55.5,9.47a25.22,25.22,0,0,1,15.26,6L46.94,76.77c-11.56,29.83-19.65,49.71-24,59.19-3,6.25-5.78,10.64-8.78,13C11.33,151,6.71,152.38,0,153.08v6.24c9.94-.23,17.58-.46,23.12-.46s13.42.23,23.59.46v-6.24c-10.17-.7-14.1-2.32-14.1-7.17,0-1.85,1.15-6,3.46-12.72l12.26-33.07,3.24-8.55,25.2-65.91h.47l22,56.89h21.88Z"/><polygon class="cls-1" points="140.94 102.44 120.06 102.42 99.17 102.44 88.04 121.19 120.06 159.33 152.08 121.19 140.94 102.44"/></g></g></svg>